<svg height="303.537199" viewBox="0 0 89.271408 81.543289" width="329.448912" xmlns="http://www.w3.org/2000/svg" xmlns:xlink="http://www.w3.org/1999/xlink"><clipPath id="a"><path d="m477.265 44.4418h70.866v70.866h-70.866z"/></clipPath><clipPath id="b"><path d="m477.265 47.5367h70.8502v64.6677h-70.8502z"/></clipPath><g clip-path="url(#a)" transform="matrix(1.25 0 0 -1.25 -596.226919 140.609831)"><g clip-path="url(#b)"><path d="m477.265 47.5367v64.6678h69.2975c3.1175-21.5668 1.8953-42.0295-6.927-64.6678" fill="#0fafa9"/><g fill="#3948a4"><path d="m505.382 87.7656-.2922-.2492c.6442-.2312 1.3447.2138 1.4857.5959l.0323.4126c-.5113-.1157-1.0173-.3692-1.2258-.7593"/><path d="m508.8798 85.7555-.509.0315c.001-.4478.1437-.811.619-1.0998l.3797-.085c.5198.4468-.1742.9005-.4897 1.1533"/><path d="m503.7698 96.2836-.3793-.2689c.773-.2775 1.406.1344 1.6843.6906l.1252.5074c-.6137-.1387-1.088-.1346-1.4302-.9291"/><path d="m503.8085 93.7338-.1135.4162c-.6137-.1387-1.0685-.3641-1.3185-.8325v-.3293c.773-.2775 1.182.4162 1.432.7456"/><path d="m501.9012 89.9715.2547-.1529c.8456-.275.9021.408 1.1104.6826l.326.2853c-.7845.1527-1.4826-.4249-1.6911-.815"/><path d="m506.8918 101.9689-.3053-.1454c.0843-.5393 1.307-1.141 1.6138-.7104l.0447.5127c-.3997.2695-.809.4149-1.3532.3431"/><path d="m511.1413 103.3476-.471.143c-.2533-.3581-.3865-.6313-.12-1.2501l.2445-.489c.557.5433 1.107 1.0553.3465 1.5961"/><path d="m522.7343 92.0667c-1.0188-.231-2.5543.4657-2.3533.601.5195.3498 1.7015.961 2.8423.5535.1945-.0693.2752-.2615.2954-.5093.0511-.5807-.4174-.5943-.7844-.6452zm3.5152-.617c-.5303.708-1.535 1.677-.7017 2.6164.4357.3322.5652.5837.6162 1.0446.1768 1.5946.0953 2.2874-.129 3.1635.038.078.2038-.0204.265.2649.1648.769-.265.9169-.265.9169.326.2852.2955 1.3548-.224 1.3447.2853.4686.0407 1.2224-.4692 1.0594 0 0 .2582.1333.224.4755-.0681.6792-1.0385.0135-.7878.4618.132.2362-.4137 1.039-.6922.4172-.1643.1099.1155.4997-.181.62-.174-.007-.356-.1459-.5803-.2698-.0632.259.2045.394-.1242.7561-.4455.3102-.4763-.1482-.7825-.318-.5698.1291.7749.4653-.4313.9745-.3095-.7385-.2847-.1914-.4213-.0908-.0817.0603-.2672-.1333-.6074-.4796.177.489.5844 1.0901-.0103.9169-.6785-.3057-.2815.0932-.289.143.5885.2644-.5422.896-.4968.2293-.0149-.4539-.9929-.841-.7164-.2931.1837.6891 1.0275-.3645.2995.8624-.4538-.5138-.821-.854-.8973-1.0414-.351-1.4079-.1575-.1243-.5243-.104.4888.326 1.1166.9067.9331 1.2836-.5296.0408-1.7481-.8252-.9778-.8965-.0572-.275-.5055-.6011-.7642-.1222.4284.1127 1.1654 1.5485.2487 1.1205-.0867-.0862-.0865-.3414-.251-.5824-.2177.1953-.0437.4977-.1192.6229-.73.6728-.4756-1.0795-.449-1.4666-.9536.5908-.057.4278-.3056 1.4058-.7904-.1427-1.0044-.4788-.872-1.3651-.1079-.214-.3057-.7028-.4382-.1019.428.5603.3873 1.3651-.3597 1.389 1.2055-11.0262 1.1167-22.1707-.6036-33.0982l-.0935-.5853c.8666.0103 2.1231.2698 3.031.3145 2.6141-.0867 2.5613-.4267 6.8863-.37.997.0968 1.275.26 1.5973.2455-.3168 1.3375-2.5005.5798-3.6098.965-1.8788.1803-2.202 1.3098-2.7985 2.1445-.2703.4655-.6615 1.0495-.6525 1.824-.146 1.0048.0475 1.5358.0288 2.5183.0852.7255.9102.58 1.4222.5167 1.6273-.161 4.3615.1025 5.0813.3193 1.0285.311 1.0527.9495.3592 1.899-.1492.4697-.1227.7615.0858 1.1807.2837.3178.65.5303.3759.9238 0 0-2.3607.4962-.7354.77 1.666.2805 1.112.958 1.112.958s-.2735.6843-.5303 1.1976c-.1882.3764 1.3857.4961 1.557 1.095.3763.5132-.8162 1.6526-1.232 2.2241"/><path d="m514.2712 72.7237c-1.3337-8.1975-3.5949-16.536-6.9662-25.187h-.003-30.0373v64.6678h36.9672c.3078-2.129.5121-3.6889.732-5.7995 0 0-.6344-.1966-.5739-.7144.0665-.568.3159-.7029.3159-.7029l-.2749-.1325s-.3048.4439-.3058.4279c0 .4355.1838 1.0901-.815.8456-.3465-.7641.55-.927.3158-1.4467-1.0595-.061-.3153.7947-1.1588.3158.057.2457-.122.8992-.387.8559-.1155-.3703-.397-.9887.0198-1.3643-.132-.0881-.5238-.0271-.6143.1078-.1237.1849.282.5026-.044 1.073-.978-.421-.0712-1.3651-.8795-1.7216-.8862.112.5128.8659-.1935 1.5179-.7947-.1834-1.1037-1.012-.7778-1.5009-.0187-.4336-.3557-.6512-.4124-1.0269-.399.0624-.5683.2079-.613.3578-.051.2752.7232.4178.2037 1.029-.8455-.1325-.2852-1.4976-.9575-.7641-.0715.3158-.2855.6011-.4515.6344-.322-.2313-.4737-.5925-.2652-.9104l.3397-.4472c-.0437.0116.1443-.2476.1018-.2344-.5603.4482-1.3075.7584-1.7828.2547.0613-.4686.4688-.4991 1.1105-.6418-.811-.0746-.9625-.3618-1.2277-.5209-.0948.5348-.7218.6177-1.309.7042-.326-.0814-.5418.1484-.693.0328.246-.6069.8392-1.0699 1.559-1.2145.323.0376.3667.0306.5907.1528.4358-.2023.3825-.2678.4963-.5712-.6315-.2833-1.138.0823-1.7695-.0808.001-.0211-.1653-.0224-.1733.0204.01.01-.0742.1516-.064.1605-.2722.5221-1.0058.3183-1.3927.2063-.057-.419.3667-.7539.713-.8966.4685-.1683.6212-.0312.6215-.0305l.1935.1732c.2037-.7436.469-.7801.8677-1.0842-.4357-.1589-.597-.2902-1.1462-.2469-.618.9542-2.4721 1.3719-2.4008.9237.2649-.9882 1.6335-1.226 1.6335-1.226s-.7167-.2649-.5942-.4957c.122-.231 1.0597-.3756.927-.737-.978.4347-1.1683.2568-.5028-.5976-.8217-.0408-.6382.8456-1.1579 1.0493-.3769-.275-.1528-.8557-.1528-.8557-.1885.149-.6825.9779-1.09.8761-.1325-.1019-.1325-.5502.1935-.8456-.3978-.0867-1.0324-.0323-1.1307-.4584.644-.4913 1.3243-.489 2.3335-.3629 0 0 .1844.0036.3764.0674.192.0642.4788-.2037.4788-.2037-.4968-.1107-.2853-.2751-1.2633-.4687-.6409-.3067-1.1449-.7047-1.1449-1.3459.3977-.1957.8821-.3851 1.1449-.0055.4279.618.3135.1211.6113.1494l.3307-.105c-.2697-.659-1.7687-.6506-1.4718-1.1276.2853-.4585.7437-.9373.7437-.9373s-1.0556.5331-1.3549.1528c-.2787-.354.3463-.9271 1.4545-1.1759-.3789-.2311-1.7092.0043-.9044-.831-.9577-.4041-.6452-.6894.129-.4856l.3668-.0408c-.2273-.1589-.9126-.4742-.8558-.7198.0407-.3261.815.0814.9372-.1631.0544-.3532-.3737-.5053-.4116-.6065.5493-.3467.8712.4914 1.3638 0-.1892-.3611-.9848-.2889-.8145-.8236.3033-.2311.7958-.13 1.0988-.3468 0 0-.403-.7766-.1938-.8786.438-.214.8468.476.9983.5195-.112-.8965.6447-.5952.4177-1.202-.0105-.3257-.0307-.7745.3055-.9475.693.2148.758.7618.7438 1.579-.005.2855.798-.1867.798-.1867.489-.394-.8288-.6928-.4365-1.528 1.1157-.1563 1.1157.7945 2.0257.971.397-.2768-.1695-.7255-.302-1.0433-.5685-.318-1.26.0653-1.8-1.035.7743-.3157 1.1433-.0562 1.4058.0818.247.1777.218.2637.4075.336.019-.3035-.0568-.852.2345-.978.2545.0205.275.112.489.2547.224-.2342-.3568-.8047-.0103-1.0492.326.061.4278.3462.4278.3462.197-.2602.4177-.2647.6215-.1935.112.275.1372.9115-.2225 1.1388.1705.2022.5892-.1813.7727-.0385.341-.419-.428-1.2225.1425-1.5588.5503.051.5245.6003 1.0738.8315-.0948-.5637.5545-.9727-.279-1.3917 0-.5503 1.022-.387.5295-1.1818.1897-.318.445-.18.6725-.1222l.489.5502c-.1328-.448-.1805-1.1495-.0483-1.6695-.1705-.419.2315-.8977-.5305-1.2572-.2082-1.0405-.209-2.0975-1.4212-2.762-.682-1.2863-4.986-.6065-5.933-1.8783.2272-.231 2.4295-.1572 2.7135-.0705.4167.2023.7387-.1592 1.1745-.1445.9657 0 2.1215.3178 2.917 0 1.1225.0113 2.0687-.0277 3.0819-.0317"/></g><path d="m521.9945 58.0005c3.582 0 5.9717 2.64 5.9717 5.888 0 3.4197-2.4124 5.7587-5.9717 5.7587-3.5817 0-6.0165-2.2745-6.0165-5.7587 0-3.4203 2.4798-5.888 6.0165-5.888zm-2.9727 5.888c0 2.043.9682 3.3982 2.9727 3.3982 1.9595 0 2.9283-1.2475 2.9283-3.3982 0-2.0005-.9461-3.5278-2.9283-3.5278-1.8917 0-2.9727 1.5058-2.9727 3.5278" fill="#fff"/><path d="m536.6108 67.2457c-.6765.1075-1.33.2585-2.0058.2585-1.1878 0-2.017-.28-2.017-.8612 0-.667 1.1205-1.205 2.377-1.8723 1.1948-.6457 2.8408-1.5065 2.8408-3.4435 0-2.1267-1.8938-3.3267-4.7695-3.3267-1.305 0-2.2068.257-3.289.4927v2.3605c.8342-.2585 2.1867-.7102 3.401-.7102.8067 0 1.6135.366 1.6135 1.0975 0 .6672-.9635 1.0762-2.3543 1.851-1.2625.6242-2.8632 1.9155-2.8632 3.551 0 1.9325 1.939 3.0042 4.5455 3.0042.8525 0 1.6867-.0857 2.521-.1862" fill="#fff"/><path d="m486.3822 58.373c.0678 1.2472.1129 2.2152.1129 3.957v5.9785c0 2.1502-.1352 3.7847-.4514 5.3762h3.9487c0-1.097-.1126-2.6237-.1126-4.3442v-5.5913c0-1.5697.248-3.9137.4511-5.3762" fill="#fff"/><path d="m496.47 53.681c-.2259 1.6545-.2259 3.5027-.2259 4.1045v1.288c.813-.4723 1.6715-1.073 3.501-1.073 3.0929 0 5.1899 2.3602 5.1899 5.6082 0 3.5275-2.1647 6.0385-5.3254 6.0385-2.191 0-3.0945-1.0515-3.817-1.8455-.158.5778-.2256 1.071-.4061 1.5648l-2.8656-.215c.3609-1.887.6769-3.645.6769-5.5748v-4.5032c0-1.589-.3384-4.576-.4512-5.6075zm-.4518 9.8957c0 2.2043.9261 3.71 2.8461 3.71 1.7844 0 3.0269-1.527 3.0269-3.6995 0-1.9357-.9714-3.2265-2.8914-3.2265-1.8973 0-2.9816 1.0935-2.9816 3.216" fill="#fff"/><path d="m513.2548 67.2787c-.6763.1078-1.0868.2255-1.762.2255-1.1881 0-2.0173-.28-2.0173-.8612 0-.667 1.1208-1.205 2.377-1.8723 1.195-.6457 2.8407-1.5065 2.8407-3.4435 0-2.1267-1.8937-3.3267-4.7694-3.3267-1.305 0-2.2068.257-3.289.4927v2.3605c.834-.2585 2.187-.7102 3.401-.7102.807 0 1.614.366 1.614 1.0975 0 .6672-.9638 1.0762-2.3548 1.851-1.2622.6242-2.8632 1.9155-2.8632 3.551 0 1.9325 1.939 3.0042 4.5455 3.0042.8527 0 1.8797-.123 2.7137-.2237" fill="#fff"/></g></g></svg>